<svg width="259" height="180" viewBox="0 0 259 180" fill="none" xmlns="http://www.w3.org/2000/svg">
<g clip-path="url(#clip0_5191_7998)">
<rect width="259" height="180" fill="url(#paint0_linear_5191_7998)"/>
<g opacity="0.78" filter="url(#filter0_i_5191_7998)">
<path d="M213.56 88.346C214.253 88.0794 215.021 88.0794 215.714 88.346L243.531 99.0437C246.023 100.002 246.115 103.494 243.677 104.583L215.86 117.006C215.082 117.353 214.192 117.353 213.414 117.006L185.597 104.583C183.159 103.494 183.251 100.002 185.743 99.0437L213.56 88.346Z" fill="url(#paint1_linear_5191_7998)"/>
</g>
<g filter="url(#filter1_i_5191_7998)">
<path d="M116.826 110.74C117.519 110.473 118.287 110.473 118.98 110.74L135.793 117.206C138.323 118.179 138.368 121.741 135.865 122.778L119.051 129.742C118.316 130.047 117.49 130.047 116.755 129.742L99.941 122.778C97.4374 121.741 97.483 118.179 100.012 117.206L116.826 110.74Z" fill="url(#paint2_linear_5191_7998)"/>
</g>
<g filter="url(#filter2_i_5191_7998)">
<path d="M85.826 97.7398C86.5191 97.4733 87.2865 97.4733 87.9797 97.7398L104.793 104.206C107.323 105.179 107.368 108.741 104.865 109.778L88.0509 116.742C87.3158 117.047 86.4899 117.047 85.7548 116.742L68.941 109.778C66.4374 108.741 66.483 105.179 69.0122 104.206L85.826 97.7398Z" fill="url(#paint3_linear_5191_7998)"/>
</g>
<g opacity="0.78" filter="url(#filter3_i_5191_7998)">
<path d="M147.826 122.74C148.519 122.473 149.287 122.473 149.98 122.74L166.793 129.206C169.323 130.179 169.368 133.741 166.865 134.778L150.051 141.742C149.316 142.047 148.49 142.047 147.755 141.742L130.941 134.778C128.437 133.741 128.483 130.179 131.012 129.206L147.826 122.74Z" fill="url(#paint4_linear_5191_7998)"/>
</g>
<g opacity="0.78" filter="url(#filter4_i_5191_7998)">
<path d="M177.826 108.74C178.519 108.473 179.287 108.473 179.98 108.74L196.793 115.206C199.323 116.179 199.368 119.741 196.865 120.778L180.051 127.742C179.316 128.047 178.49 128.047 177.755 127.742L160.941 120.778C158.437 119.741 158.483 116.179 161.012 115.206L177.826 108.74Z" fill="url(#paint5_linear_5191_7998)"/>
</g>
<g filter="url(#filter5_i_5191_7998)">
<path d="M51.2283 72.2188C51.9215 71.9522 52.6889 71.9522 53.382 72.2188L85.5981 84.6084C88.1274 85.5811 88.1729 89.1431 85.6694 90.1801L53.4532 103.524C52.7181 103.829 51.8922 103.829 51.1571 103.524L18.941 90.1801C16.4374 89.1431 16.4829 85.5811 19.0122 84.6084L51.2283 72.2188Z" fill="url(#paint6_linear_5191_7998)"/>
</g>
<path d="M214.202 69.6096L232.469 76.4006L214.406 86.9405L196.59 76.6487L214.202 69.6096Z" fill="#005483" stroke="black" stroke-width="0.876514"/>
<path d="M214.21 86.9734L214.431 87.1013L214.652 86.9719L231.541 77.0495L232.515 76.8546L214.36 102.78L196.406 76.8606L196.723 76.8606L214.21 86.9734Z" fill="#009CF6" stroke="black" stroke-width="0.876514"/>
<path opacity="0.2" d="M214.562 102.246V87.3414L232.343 76.7832L214.562 102.246Z" fill="black" stroke="black" stroke-width="0.876514"/>
<path d="M232.607 70.9711L214.173 43.7324L195.739 70.9711L214.173 82.3183L232.607 70.9711Z" fill="#009CF6" stroke="black" stroke-width="0.876514"/>
<path d="M214.189 82.3184L232.397 71.1892L214.189 62.5879L195.847 71.1892L214.189 82.3184Z" fill="#0069A4" stroke="black" stroke-width="0.876514"/>
<path d="M214.122 43.9902L214.122 82.1575" stroke="black" stroke-width="0.876514"/>
<path d="M214.43 87.0176L214.43 102.275" stroke="black" stroke-width="0.876514"/>
<path opacity="0.2" d="M214.285 82.1547V44.4727L232.721 70.9957L214.285 82.1547Z" fill="black" stroke="black" stroke-width="0.876514"/>
<path fill-rule="evenodd" clip-rule="evenodd" d="M55.5444 86.0663C64.2688 82.5282 70.5319 72.7071 70.51 61.1572C70.488 49.6074 64.1876 39.8101 55.4498 36.3052L55.4472 34.9132L48.6913 34.926L48.6913 34.9297C48.5665 34.9274 48.4413 34.9264 48.316 34.9267C36.0861 34.9499 26.1942 46.7314 26.2218 61.2414C26.2494 75.7514 36.186 87.4952 48.4158 87.472C48.5412 87.4717 48.6663 87.4702 48.7912 87.4675L48.7912 87.4713L55.547 87.4585L55.5444 86.0663Z" fill="#B8B816"/>
<path d="M55.5444 86.0663L55.3726 85.6427L55.0866 85.7587L55.0872 86.0672L55.5444 86.0663ZM55.4498 36.3052L54.9927 36.3061L54.9933 36.6146L55.2796 36.7295L55.4498 36.3052ZM55.4472 34.9132L55.9043 34.9123L55.9034 34.4552L55.4463 34.456L55.4472 34.9132ZM48.6913 34.926L48.6905 34.4689L48.2333 34.4698L48.2342 34.9269L48.6913 34.926ZM48.6913 34.9297L48.6832 35.3867L49.1494 35.395L49.1485 34.9288L48.6913 34.9297ZM48.7912 87.4675L49.2483 87.4667L49.2474 87.0004L48.7813 87.0105L48.7912 87.4675ZM48.7912 87.4713L48.3341 87.4722L48.3349 87.9293L48.7921 87.9285L48.7912 87.4713ZM55.547 87.4585L55.5479 87.9156L56.005 87.9147L56.0042 87.4576L55.547 87.4585ZM70.0528 61.1581C70.0745 72.5543 63.8958 82.1862 55.3726 85.6427L55.7162 86.49C64.6419 82.8702 70.9894 72.8599 70.9671 61.1564L70.0528 61.1581ZM55.2796 36.7295C63.8159 40.1536 70.0312 49.7619 70.0528 61.1581L70.9671 61.1564C70.9449 49.4528 64.5594 39.4667 55.62 35.8809L55.2796 36.7295ZM54.99 34.9141L54.9927 36.3061L55.907 36.3043L55.9043 34.9123L54.99 34.9141ZM48.6922 35.3832L55.448 35.3703L55.4463 34.456L48.6905 34.4689L48.6922 35.3832ZM49.1485 34.9288L49.1485 34.9252L48.2342 34.9269L48.2342 34.9305L49.1485 34.9288ZM48.3168 35.3838C48.4392 35.3836 48.5613 35.3846 48.6832 35.3867L48.6995 34.4726C48.5716 34.4703 48.4435 34.4693 48.3151 34.4695L48.3168 35.3838ZM26.6789 61.2405C26.6517 46.9067 36.4096 35.4064 48.3168 35.3838L48.3151 34.4695C35.7627 34.4934 25.7368 46.5562 25.7647 61.2423L26.6789 61.2405ZM48.4149 87.0148C36.5077 87.0374 26.7062 75.5744 26.6789 61.2405L25.7647 61.2423C25.7926 75.9284 35.8643 87.953 48.4167 87.9291L48.4149 87.0148ZM48.7813 87.0105C48.6594 87.0131 48.5373 87.0146 48.4149 87.0148L48.4167 87.9291C48.5451 87.9289 48.6732 87.9273 48.8011 87.9246L48.7813 87.0105ZM49.2483 87.4704L49.2483 87.4667L48.334 87.4684L48.3341 87.4722L49.2483 87.4704ZM55.5462 87.0013L48.7903 87.0142L48.7921 87.9285L55.5479 87.9156L55.5462 87.0013ZM55.0872 86.0672L55.0899 87.4593L56.0042 87.4576L56.0015 86.0655L55.0872 86.0672Z" fill="black"/>
<path d="M77.5 61.5C77.5 75.9505 67.791 87.5 56 87.5C44.2089 87.5 34.5 75.9505 34.5 61.5C34.5 47.0495 44.2089 35.5 56 35.5C67.791 35.5 77.5 47.0495 77.5 61.5Z" fill="#FCFC03" stroke="black"/>
<mask id="mask0_5191_7998" style="mask-type:alpha" maskUnits="userSpaceOnUse" x="44" y="42" width="25" height="39">
<rect x="44.051" y="42" width="24.6735" height="39" fill="#D9D9D9"/>
</mask>
<g mask="url(#mask0_5191_7998)">
<path fill-rule="evenodd" clip-rule="evenodd" d="M66.7004 56.0194L63.268 60.2911L63.2493 60.3905L65.9644 63.2205L65.1537 71.199L61.6731 75.5056L61.673 75.5067L47.4787 78.8355L49.7908 55.5694L52.5654 58.528L51.1715 72.3894L62.2545 69.7903L61.6889 75.3502L63.0403 62.1966L55.1185 64.0544L55.5831 59.434L63.5049 57.5762L64.1473 51.2518L44.3928 55.8846L47.9169 49.5731L64.7226 45.6318L67.4768 48.4764L66.7004 56.0194Z" fill="#2E2E00"/>
</g>
<g filter="url(#filter6_f_5191_7998)">
<rect x="25" y="111" width="209" height="57" fill="#434403"/>
</g>
<path opacity="0.6" d="M70.3078 162.225C68.7912 162.225 67.5695 161.719 66.6428 160.708C65.716 159.697 65.2526 158.363 65.2526 156.706C65.2526 155.03 65.716 153.678 66.6428 152.648C67.5789 151.618 68.8146 151.103 70.3499 151.103C71.6043 151.103 72.6668 151.478 73.5374 152.227C74.4081 152.966 74.9276 153.94 75.0961 155.147H73.6357C73.4953 154.342 73.1162 153.692 72.4983 153.196C71.8805 152.69 71.1316 152.437 70.2516 152.437C69.1844 152.437 68.3278 152.826 67.6819 153.603C67.0453 154.38 66.727 155.4 66.727 156.664C66.727 157.928 67.05 158.948 67.6959 159.725C68.3512 160.502 69.2125 160.891 70.2797 160.891C71.1503 160.891 71.8898 160.643 72.4983 160.146C73.1162 159.641 73.4953 158.981 73.6357 158.167H75.0961C74.9276 159.383 74.4034 160.366 73.5234 161.115C72.6528 161.855 71.5809 162.225 70.3078 162.225ZM76.6367 162V154.628H77.9286V156.018C78.2562 155.381 78.6962 154.937 79.2485 154.684C79.6043 154.525 80.0536 154.445 80.5966 154.445V155.864H80.3017C79.6464 155.864 79.0988 156.093 78.6588 156.552C78.2188 157.001 77.9988 157.6 77.9988 158.349V162H76.6367ZM87.0832 161.115C86.4279 161.855 85.5713 162.225 84.5135 162.225C83.4556 162.225 82.5944 161.855 81.9297 161.115C81.265 160.366 80.9327 159.43 80.9327 158.307C80.9327 157.165 81.2604 156.229 81.9157 155.498C82.5803 154.768 83.4463 154.403 84.5135 154.403C85.5807 154.403 86.4372 154.768 87.0832 155.498C87.7385 156.219 88.0661 157.155 88.0661 158.307C88.0661 159.43 87.7385 160.366 87.0832 161.115ZM82.8705 160.301C83.2543 160.797 83.7973 161.045 84.4994 161.045C85.2015 161.045 85.7445 160.797 86.1283 160.301C86.5121 159.805 86.704 159.14 86.704 158.307C86.704 157.474 86.5074 156.814 86.1143 156.327C85.7304 155.831 85.1922 155.583 84.4994 155.583C83.8067 155.583 83.2637 155.831 82.8705 156.327C82.4867 156.814 82.2948 157.474 82.2948 158.307C82.2948 159.14 82.4867 159.805 82.8705 160.301ZM92.5914 162.225C91.4399 162.225 90.5693 161.981 89.9796 161.494C89.3898 161.008 89.0622 160.371 88.9966 159.585H90.3447C90.4664 160.137 90.7144 160.526 91.0889 160.75C91.4634 160.975 91.9923 161.087 92.6757 161.087C93.5837 161.087 94.0377 160.746 94.0377 160.062C94.0377 159.744 93.902 159.501 93.6305 159.332C93.3684 159.163 93.008 159.023 92.5493 158.911C92.0906 158.798 91.7395 158.709 91.4961 158.644C91.2621 158.569 90.9859 158.466 90.6676 158.335C90.3493 158.204 90.1106 158.068 89.9515 157.928C89.8017 157.787 89.6706 157.605 89.5583 157.38C89.446 157.155 89.3851 156.893 89.3758 156.594C89.3664 155.845 89.6472 155.293 90.2183 154.937C90.7893 154.581 91.5148 154.403 92.3948 154.403C93.2654 154.403 93.9394 154.628 94.4169 155.077C94.9037 155.527 95.1611 156.126 95.1892 156.875H93.8412C93.7569 155.985 93.242 155.541 92.2965 155.541C91.2293 155.541 90.6957 155.864 90.6957 156.51C90.6957 156.828 90.8408 157.067 91.131 157.226C91.4212 157.375 91.9642 157.539 92.7599 157.717C93.0782 157.792 93.3216 157.853 93.4901 157.9C93.6586 157.947 93.8833 158.031 94.1641 158.152C94.445 158.265 94.6556 158.391 94.796 158.532C94.9364 158.672 95.0628 158.869 95.1752 159.121C95.2969 159.365 95.3577 159.646 95.3577 159.964C95.3577 161.471 94.4356 162.225 92.5914 162.225ZM99.8593 162.225C98.7078 162.225 97.8372 161.981 97.2475 161.494C96.6577 161.008 96.33 160.371 96.2645 159.585H97.6126C97.7343 160.137 97.9823 160.526 98.3568 160.75C98.7312 160.975 99.2602 161.087 99.9436 161.087C100.852 161.087 101.306 160.746 101.306 160.062C101.306 159.744 101.17 159.501 100.898 159.332C100.636 159.163 100.276 159.023 99.8172 158.911C99.3585 158.798 99.0074 158.709 98.764 158.644C98.53 158.569 98.2538 158.466 97.9355 158.335C97.6172 158.204 97.3785 158.068 97.2194 157.928C97.0696 157.787 96.9385 157.605 96.8262 157.38C96.7139 157.155 96.653 156.893 96.6437 156.594C96.6343 155.845 96.9151 155.293 97.4862 154.937C98.0572 154.581 98.7827 154.403 99.6627 154.403C100.533 154.403 101.207 154.628 101.685 155.077C102.172 155.527 102.429 156.126 102.457 156.875H101.109C101.025 155.985 100.51 155.541 99.5644 155.541C98.4972 155.541 97.9636 155.864 97.9636 156.51C97.9636 156.828 98.1087 157.067 98.3989 157.226C98.6891 157.375 99.2321 157.539 100.028 157.717C100.346 157.792 100.589 157.853 100.758 157.9C100.927 157.947 101.151 158.031 101.432 158.152C101.713 158.265 101.923 158.391 102.064 158.532C102.204 158.672 102.331 158.869 102.443 159.121C102.565 159.365 102.626 159.646 102.626 159.964C102.626 161.471 101.703 162.225 99.8593 162.225ZM109.68 158.953H104.063V157.731H109.68V158.953ZM114.516 162.225C113.411 162.225 112.55 161.86 111.932 161.129C111.314 160.39 111.005 159.449 111.005 158.307C111.005 157.137 111.314 156.196 111.932 155.484C112.55 154.764 113.407 154.403 114.502 154.403C115.438 154.403 116.206 154.665 116.805 155.19C117.404 155.704 117.732 156.388 117.788 157.24H116.44C116.252 156.135 115.611 155.583 114.516 155.583C113.823 155.583 113.29 155.831 112.915 156.327C112.55 156.814 112.367 157.474 112.367 158.307C112.367 159.149 112.55 159.819 112.915 160.315C113.28 160.802 113.814 161.045 114.516 161.045C115.021 161.045 115.443 160.909 115.78 160.638C116.117 160.357 116.337 160.006 116.44 159.585H117.788C117.713 160.296 117.385 160.914 116.805 161.438C116.234 161.963 115.471 162.225 114.516 162.225ZM119.202 162V151.328H120.564V155.737C121.098 154.848 121.921 154.403 123.035 154.403C123.85 154.403 124.496 154.679 124.973 155.232C125.46 155.775 125.703 156.486 125.703 157.366V162H124.341V157.745C124.341 157.062 124.196 156.533 123.906 156.158C123.616 155.775 123.204 155.583 122.67 155.583C122.081 155.583 121.58 155.803 121.168 156.243C120.765 156.673 120.564 157.254 120.564 157.984V162H119.202ZM129.525 162.154C128.645 162.154 127.999 161.934 127.587 161.494C127.175 161.054 126.969 160.53 126.969 159.922C126.969 159.22 127.245 158.663 127.798 158.251C128.453 157.745 129.731 157.492 131.631 157.492H132.024V157.071C132.024 156.079 131.481 155.583 130.396 155.583C129.806 155.583 129.375 155.7 129.104 155.934C128.842 156.158 128.701 156.43 128.682 156.748H127.348C127.358 156.467 127.409 156.201 127.503 155.948C127.606 155.695 127.765 155.452 127.98 155.218C128.196 154.974 128.509 154.782 128.921 154.642C129.342 154.492 129.843 154.417 130.424 154.417C131.388 154.417 132.123 154.656 132.628 155.133C133.143 155.601 133.401 156.416 133.401 157.577V160.203C133.401 160.54 133.447 160.764 133.541 160.877C133.635 160.989 133.827 161.045 134.117 161.045V162.098H133.836C133.377 162.098 132.993 161.995 132.684 161.789C132.385 161.583 132.212 161.312 132.165 160.975H132.151C131.889 161.321 131.519 161.607 131.041 161.831C130.564 162.047 130.059 162.154 129.525 162.154ZM129.82 161.045C130.494 161.045 131.032 160.881 131.435 160.554C131.837 160.217 132.038 159.884 132.038 159.557V158.475H131.575C131.088 158.475 130.667 158.494 130.311 158.532C129.956 158.569 129.614 158.639 129.286 158.742C128.968 158.836 128.725 158.986 128.556 159.192C128.397 159.388 128.317 159.632 128.317 159.922C128.317 160.277 128.444 160.554 128.696 160.75C128.959 160.947 129.333 161.045 129.82 161.045ZM135.438 152.774V151.328H136.941V152.774H135.438ZM135.508 162V154.628H136.87V162H135.508ZM138.688 162V154.628H140.05V155.737C140.584 154.848 141.408 154.403 142.522 154.403C143.336 154.403 143.982 154.679 144.459 155.232C144.946 155.775 145.19 156.486 145.19 157.366V162H143.827V157.745C143.827 157.062 143.682 156.533 143.392 156.158C143.102 155.775 142.69 155.583 142.156 155.583C141.567 155.583 141.066 155.803 140.654 156.243C140.251 156.673 140.05 157.254 140.05 157.984V162H138.688ZM153.916 162.225C152.765 162.225 151.894 161.981 151.304 161.494C150.714 161.008 150.387 160.371 150.321 159.585H151.669C151.791 160.137 152.039 160.526 152.413 160.75C152.788 160.975 153.317 161.087 154 161.087C154.908 161.087 155.362 160.746 155.362 160.062C155.362 159.744 155.227 159.501 154.955 159.332C154.693 159.163 154.333 159.023 153.874 158.911C153.415 158.798 153.064 158.709 152.821 158.644C152.587 158.569 152.311 158.466 151.992 158.335C151.674 158.204 151.435 158.068 151.276 157.928C151.126 157.787 150.995 157.605 150.883 157.38C150.771 157.155 150.71 156.893 150.7 156.594C150.691 155.845 150.972 155.293 151.543 154.937C152.114 154.581 152.839 154.403 153.719 154.403C154.59 154.403 155.264 154.628 155.741 155.077C156.228 155.527 156.486 156.126 156.514 156.875H155.166C155.081 155.985 154.567 155.541 153.621 155.541C152.554 155.541 152.02 155.864 152.02 156.51C152.02 156.828 152.165 157.067 152.456 157.226C152.746 157.375 153.289 157.539 154.084 157.717C154.403 157.792 154.646 157.853 154.815 157.9C154.983 157.947 155.208 158.031 155.489 158.152C155.77 158.265 155.98 158.391 156.121 158.532C156.261 158.672 156.387 158.869 156.5 159.121C156.621 159.365 156.682 159.646 156.682 159.964C156.682 161.471 155.76 162.225 153.916 162.225ZM160.24 162L157.431 154.628H158.934L160.886 160.329H160.914L162.641 154.628H164.143L165.885 160.329H165.913L167.851 154.628H169.353L166.545 162H165.239L163.413 156.158H163.385L161.546 162H160.24ZM172.2 162.154C171.32 162.154 170.674 161.934 170.262 161.494C169.85 161.054 169.644 160.53 169.644 159.922C169.644 159.22 169.92 158.663 170.473 158.251C171.128 157.745 172.406 157.492 174.306 157.492H174.699V157.071C174.699 156.079 174.156 155.583 173.07 155.583C172.481 155.583 172.05 155.7 171.779 155.934C171.516 156.158 171.376 156.43 171.357 156.748H170.023C170.033 156.467 170.084 156.201 170.178 155.948C170.281 155.695 170.44 155.452 170.655 155.218C170.871 154.974 171.184 154.782 171.596 154.642C172.017 154.492 172.518 154.417 173.099 154.417C174.063 154.417 174.798 154.656 175.303 155.133C175.818 155.601 176.075 156.416 176.075 157.577V160.203C176.075 160.54 176.122 160.764 176.216 160.877C176.309 160.989 176.501 161.045 176.792 161.045V162.098H176.511C176.052 162.098 175.668 161.995 175.359 161.789C175.06 161.583 174.887 161.312 174.84 160.975H174.826C174.564 161.321 174.194 161.607 173.716 161.831C173.239 162.047 172.733 162.154 172.2 162.154ZM172.495 161.045C173.169 161.045 173.707 160.881 174.11 160.554C174.512 160.217 174.713 159.884 174.713 159.557V158.475H174.25C173.763 158.475 173.342 158.494 172.986 158.532C172.63 158.569 172.289 158.639 171.961 158.742C171.643 158.836 171.399 158.986 171.231 159.192C171.072 159.388 170.992 159.632 170.992 159.922C170.992 160.277 171.119 160.554 171.371 160.75C171.633 160.947 172.008 161.045 172.495 161.045ZM182.315 154.403C183.317 154.403 184.127 154.764 184.745 155.484C185.363 156.196 185.671 157.132 185.671 158.293C185.671 159.472 185.367 160.423 184.759 161.143C184.16 161.864 183.364 162.225 182.372 162.225C181.885 162.225 181.412 162.122 180.953 161.916C180.504 161.7 180.153 161.42 179.9 161.073V165.37H178.538V154.628H179.858V155.625C180.148 155.25 180.513 154.956 180.953 154.74C181.403 154.516 181.857 154.403 182.315 154.403ZM182.147 161.031C182.793 161.031 183.312 160.783 183.706 160.287C184.108 159.791 184.309 159.14 184.309 158.335C184.309 157.502 184.108 156.837 183.706 156.341C183.303 155.836 182.774 155.583 182.119 155.583C181.454 155.583 180.916 155.803 180.504 156.243C180.101 156.683 179.9 157.263 179.9 157.984V158.798C179.9 159.463 180.106 160.001 180.518 160.413C180.93 160.825 181.473 161.031 182.147 161.031ZM190.187 162.225C189.035 162.225 188.165 161.981 187.575 161.494C186.985 161.008 186.658 160.371 186.592 159.585H187.94C188.062 160.137 188.31 160.526 188.684 160.75C189.059 160.975 189.588 161.087 190.271 161.087C191.179 161.087 191.633 160.746 191.633 160.062C191.633 159.744 191.498 159.501 191.226 159.332C190.964 159.163 190.603 159.023 190.145 158.911C189.686 158.798 189.335 158.709 189.092 158.644C188.858 158.569 188.581 158.466 188.263 158.335C187.945 158.204 187.706 158.068 187.547 157.928C187.397 157.787 187.266 157.605 187.154 157.38C187.041 157.155 186.981 156.893 186.971 156.594C186.962 155.845 187.243 155.293 187.814 154.937C188.385 154.581 189.11 154.403 189.99 154.403C190.861 154.403 191.535 154.628 192.012 155.077C192.499 155.527 192.757 156.126 192.785 156.875H191.437C191.352 155.985 190.838 155.541 189.892 155.541C188.825 155.541 188.291 155.864 188.291 156.51C188.291 156.828 188.436 157.067 188.727 157.226C189.017 157.375 189.56 157.539 190.355 157.717C190.674 157.792 190.917 157.853 191.086 157.9C191.254 157.947 191.479 158.031 191.76 158.152C192.04 158.265 192.251 158.391 192.392 158.532C192.532 158.672 192.658 158.869 192.771 159.121C192.892 159.365 192.953 159.646 192.953 159.964C192.953 161.471 192.031 162.225 190.187 162.225Z" fill="white"/>
<path d="M47.2662 142V124.49H53.8326C55.6912 124.49 57.1734 124.874 58.2794 125.642C59.3853 126.394 59.9382 127.523 59.9382 129.028C59.9382 129.889 59.7078 130.641 59.247 131.286C58.8016 131.916 58.2102 132.316 57.473 132.484C58.4867 132.669 59.3008 133.168 59.9152 133.982C60.545 134.781 60.8598 135.748 60.8598 136.885C60.8598 138.483 60.2992 139.734 59.1779 140.641C58.0566 141.547 56.5514 142 54.6621 142H47.2662ZM50.6992 131.54H53.3027C55.3302 131.54 56.344 130.895 56.344 129.604C56.344 128.944 56.0982 128.429 55.6067 128.061C55.1152 127.677 54.4163 127.485 53.5101 127.485H50.6992V131.54ZM50.6992 139.005H53.8326C54.8618 139.005 55.6912 138.805 56.321 138.406C56.9507 137.991 57.2656 137.369 57.2656 136.54C57.2656 135.741 56.9507 135.134 56.321 134.719C55.6912 134.289 54.831 134.074 53.7405 134.074H50.6992V139.005ZM67.1462 138.59H75.9014V142H63.7362V124.49H67.1462V138.59ZM76.6869 142L83.6219 124.49H87.1931L94.1051 142H90.3266L88.829 137.876H81.9861L80.4654 142H76.6869ZM83.092 134.696H87.7L85.396 128.452L83.092 134.696ZM102.366 142.369C99.9388 142.369 98.0726 141.823 96.767 140.733C95.4614 139.642 94.7241 138.175 94.5551 136.332H98.2646C98.5257 137.438 99.0095 138.229 99.7161 138.705C100.423 139.181 101.36 139.42 102.527 139.42C103.418 139.42 104.109 139.251 104.601 138.913C105.107 138.559 105.361 138.06 105.361 137.415C105.361 137.092 105.276 136.801 105.107 136.54C104.954 136.278 104.723 136.056 104.416 135.871C104.124 135.687 103.84 135.541 103.564 135.434C103.303 135.326 102.98 135.211 102.596 135.088C100.446 134.397 99.2322 133.997 98.9558 133.89C97.7884 133.398 96.8898 132.807 96.2601 132.116C95.6303 131.425 95.3154 130.495 95.3154 129.328C95.3154 128.422 95.5074 127.623 95.8914 126.932C96.2754 126.225 96.79 125.68 97.4351 125.296C98.0802 124.897 98.7791 124.605 99.5318 124.42C100.284 124.221 101.075 124.121 101.905 124.121C103.948 124.121 105.538 124.651 106.674 125.711C107.826 126.771 108.441 128.191 108.517 129.973H104.808C104.639 128.038 103.594 127.07 101.674 127.07C101.29 127.07 100.922 127.116 100.569 127.208C100.215 127.285 99.8697 127.485 99.5318 127.807C99.2092 128.13 99.0479 128.552 99.0479 129.075C99.0479 129.566 99.2015 129.965 99.5087 130.273C99.8159 130.564 100.315 130.841 101.006 131.102C101.452 131.256 102.504 131.586 104.163 132.093C105.422 132.461 106.329 132.822 106.882 133.176C108.233 134.082 108.909 135.426 108.909 137.208C108.909 138.928 108.348 140.218 107.227 141.078C106.106 141.939 104.485 142.369 102.366 142.369ZM124.086 127.9H118.787V142H115.354V127.9H110.054V124.49H124.063L124.086 127.9Z" fill="white"/>
<path d="M163.567 138.59H172.945V142H160.157V124.49H172.553V127.9H163.567V131.425H171.747V134.604H163.567V138.59ZM181.5 142L174.565 124.49H178.367L183.274 138.037L188.182 124.49H191.983L185.071 142H181.5ZM194.132 142V124.49H197.911L203.003 138.083L208.072 124.49H211.85V142H208.417V131.448L204.662 142H201.321L197.565 131.448V142H194.132Z" fill="white"/>
<rect x="131" y="123.469" width="20.9805" height="19.8763" rx="4.41695" fill="#FCFC03"/>
<path d="M152.4 120L152.698 121.347C152.799 121.805 153.157 122.162 153.614 122.263L154.961 122.561L153.614 122.859C153.157 122.96 152.799 123.317 152.698 123.775L152.4 125.122L152.103 123.775C152.001 123.317 151.644 122.96 151.187 122.859L149.839 122.561L151.187 122.263C151.644 122.162 152.001 121.805 152.103 121.347L152.4 120Z" fill="#FCFC03"/>
<path d="M136.521 133.405V132.577C136.521 131.052 137.757 129.816 139.282 129.816H145.907" stroke="black" stroke-width="1.10424" stroke-linecap="round"/>
<path d="M143.975 127.332L146.069 129.426C146.285 129.642 146.285 129.991 146.069 130.207L143.975 132.301" stroke="black" stroke-width="1.10424" stroke-linecap="round"/>
<path d="M146.459 133.956V134.784C146.459 136.309 145.224 137.545 143.699 137.545H137.073" stroke="black" stroke-width="1.10424" stroke-linecap="round"/>
<path d="M139.006 140.029L136.912 137.935C136.696 137.72 136.696 137.37 136.912 137.154L139.006 135.06" stroke="black" stroke-width="1.10424" stroke-linecap="round"/>
<path d="M19 37.8643L85 15V80.5L19 107.864V37.8643Z" fill="#FCFC03" fill-opacity="0.18" stroke="black" stroke-width="0.914286"/>
<path d="M99 76.5006L112 71V81.8128L99 87.5007V76.5006Z" fill="#FCFC03" fill-opacity="0.18" stroke="black" stroke-width="0.914286"/>
<path d="M124 47.0005L134 43V73.5L124 77.5V47.0005Z" fill="#FCFC03" fill-opacity="0.18" stroke="black" stroke-width="0.914286"/>
<rect x="82" y="12" width="6" height="6" fill="#FCFC03" stroke="black" stroke-width="0.914286"/>
<path d="M16 35.5H22V41.5H16V35.5Z" fill="#FCFC03" stroke="black" stroke-width="0.914286"/>
<rect x="16" y="105" width="6" height="6" fill="#FCFC03" stroke="black" stroke-width="0.914286"/>
<rect x="82" y="78" width="6" height="6" fill="#FCFC03" stroke="black" stroke-width="0.914286"/>
<path d="M245 49.8643L179 27V92.5L245 119.864V49.8643Z" fill="#1F5CB5" fill-opacity="0.15" stroke="black" stroke-width="0.914286"/>
<path d="M168.5 72.1282L145 63V75.6961L168.5 85.6964V72.1282Z" fill="#1F5CB5" fill-opacity="0.15" stroke="black" stroke-width="0.914286"/>
<path d="M156 48.5L146 45V55.6965L156 59.5V48.5Z" fill="#1F5CB5" fill-opacity="0.15" stroke="black" stroke-width="0.914286"/>
<rect width="6" height="6" transform="matrix(-1 0 0 1 182 24)" fill="#1F5CB5" stroke="black" stroke-width="0.914286"/>
<path d="M248 47.5H242V53.5H248V47.5Z" fill="#1F5CB5" stroke="black" stroke-width="0.914286"/>
<rect width="6" height="6" transform="matrix(-1 0 0 1 248 117)" fill="#1F5CB5" stroke="black" stroke-width="0.914286"/>
<rect width="6" height="6" transform="matrix(-1 0 0 1 182 90)" fill="#1F5CB5" stroke="black" stroke-width="0.914286"/>
</g>
<defs>
<filter id="filter0_i_5191_7998" x="183.82" y="85.1465" width="61.6338" height="32.1191" filterUnits="userSpaceOnUse" color-interpolation-filters="sRGB">
<feFlood flood-opacity="0" result="BackgroundImageFix"/>
<feBlend mode="normal" in="SourceGraphic" in2="BackgroundImageFix" result="shape"/>
<feColorMatrix in="SourceAlpha" type="matrix" values="0 0 0 0 0 0 0 0 0 0 0 0 0 0 0 0 0 0 127 0" result="hardAlpha"/>
<feOffset dy="-3"/>
<feGaussianBlur stdDeviation="1.9"/>
<feComposite in2="hardAlpha" operator="arithmetic" k2="-1" k3="1"/>
<feColorMatrix type="matrix" values="0 0 0 0 0 0 0 0 0 0 0 0 0 0 0 0 0 0 0.25 0"/>
<feBlend mode="normal" in2="shape" result="effect1_innerShadow_5191_7998"/>
</filter>
<filter id="filter1_i_5191_7998" x="98.0891" y="107.539" width="39.6274" height="22.4316" filterUnits="userSpaceOnUse" color-interpolation-filters="sRGB">
<feFlood flood-opacity="0" result="BackgroundImageFix"/>
<feBlend mode="normal" in="SourceGraphic" in2="BackgroundImageFix" result="shape"/>
<feColorMatrix in="SourceAlpha" type="matrix" values="0 0 0 0 0 0 0 0 0 0 0 0 0 0 0 0 0 0 127 0" result="hardAlpha"/>
<feOffset dy="-3"/>
<feGaussianBlur stdDeviation="2"/>
<feComposite in2="hardAlpha" operator="arithmetic" k2="-1" k3="1"/>
<feColorMatrix type="matrix" values="0 0 0 0 0 0 0 0 0 0 0 0 0 0 0 0 0 0 0.25 0"/>
<feBlend mode="normal" in2="shape" result="effect1_innerShadow_5191_7998"/>
</filter>
<filter id="filter2_i_5191_7998" x="67.0891" y="94.5391" width="39.6274" height="22.4316" filterUnits="userSpaceOnUse" color-interpolation-filters="sRGB">
<feFlood flood-opacity="0" result="BackgroundImageFix"/>
<feBlend mode="normal" in="SourceGraphic" in2="BackgroundImageFix" result="shape"/>
<feColorMatrix in="SourceAlpha" type="matrix" values="0 0 0 0 0 0 0 0 0 0 0 0 0 0 0 0 0 0 127 0" result="hardAlpha"/>
<feOffset dy="-3"/>
<feGaussianBlur stdDeviation="2"/>
<feComposite in2="hardAlpha" operator="arithmetic" k2="-1" k3="1"/>
<feColorMatrix type="matrix" values="0 0 0 0 0 0 0 0 0 0 0 0 0 0 0 0 0 0 0.25 0"/>
<feBlend mode="normal" in2="shape" result="effect1_innerShadow_5191_7998"/>
</filter>
<filter id="filter3_i_5191_7998" x="129.089" y="119.539" width="39.6274" height="22.4316" filterUnits="userSpaceOnUse" color-interpolation-filters="sRGB">
<feFlood flood-opacity="0" result="BackgroundImageFix"/>
<feBlend mode="normal" in="SourceGraphic" in2="BackgroundImageFix" result="shape"/>
<feColorMatrix in="SourceAlpha" type="matrix" values="0 0 0 0 0 0 0 0 0 0 0 0 0 0 0 0 0 0 127 0" result="hardAlpha"/>
<feOffset dy="-3"/>
<feGaussianBlur stdDeviation="1.9"/>
<feComposite in2="hardAlpha" operator="arithmetic" k2="-1" k3="1"/>
<feColorMatrix type="matrix" values="0 0 0 0 0 0 0 0 0 0 0 0 0 0 0 0 0 0 0.25 0"/>
<feBlend mode="normal" in2="shape" result="effect1_innerShadow_5191_7998"/>
</filter>
<filter id="filter4_i_5191_7998" x="159.089" y="105.539" width="39.6274" height="22.4316" filterUnits="userSpaceOnUse" color-interpolation-filters="sRGB">
<feFlood flood-opacity="0" result="BackgroundImageFix"/>
<feBlend mode="normal" in="SourceGraphic" in2="BackgroundImageFix" result="shape"/>
<feColorMatrix in="SourceAlpha" type="matrix" values="0 0 0 0 0 0 0 0 0 0 0 0 0 0 0 0 0 0 127 0" result="hardAlpha"/>
<feOffset dy="-3"/>
<feGaussianBlur stdDeviation="1.9"/>
<feComposite in2="hardAlpha" operator="arithmetic" k2="-1" k3="1"/>
<feColorMatrix type="matrix" values="0 0 0 0 0 0 0 0 0 0 0 0 0 0 0 0 0 0 0.25 0"/>
<feBlend mode="normal" in2="shape" result="effect1_innerShadow_5191_7998"/>
</filter>
<filter id="filter5_i_5191_7998" x="17.0891" y="69.0195" width="70.4321" height="34.7324" filterUnits="userSpaceOnUse" color-interpolation-filters="sRGB">
<feFlood flood-opacity="0" result="BackgroundImageFix"/>
<feBlend mode="normal" in="SourceGraphic" in2="BackgroundImageFix" result="shape"/>
<feColorMatrix in="SourceAlpha" type="matrix" values="0 0 0 0 0 0 0 0 0 0 0 0 0 0 0 0 0 0 127 0" result="hardAlpha"/>
<feOffset dy="-3"/>
<feGaussianBlur stdDeviation="2"/>
<feComposite in2="hardAlpha" operator="arithmetic" k2="-1" k3="1"/>
<feColorMatrix type="matrix" values="0 0 0 0 0 0 0 0 0 0 0 0 0 0 0 0 0 0 0.25 0"/>
<feBlend mode="normal" in2="shape" result="effect1_innerShadow_5191_7998"/>
</filter>
<filter id="filter6_f_5191_7998" x="-7.7" y="78.3" width="274.4" height="122.4" filterUnits="userSpaceOnUse" color-interpolation-filters="sRGB">
<feFlood flood-opacity="0" result="BackgroundImageFix"/>
<feBlend mode="normal" in="SourceGraphic" in2="BackgroundImageFix" result="shape"/>
<feGaussianBlur stdDeviation="16.35" result="effect1_foregroundBlur_5191_7998"/>
</filter>
<linearGradient id="paint0_linear_5191_7998" x1="129.5" y1="0" x2="129.5" y2="180" gradientUnits="userSpaceOnUse">
<stop stop-color="#1B1B0C"/>
<stop offset="1" stop-color="#464700"/>
</linearGradient>
<linearGradient id="paint1_linear_5191_7998" x1="209.5" y1="106.5" x2="209.5" y2="160.5" gradientUnits="userSpaceOnUse">
<stop stop-color="#5F9FFF"/>
<stop offset="0.677619" stop-color="#396099"/>
</linearGradient>
<linearGradient id="paint2_linear_5191_7998" x1="119.877" y1="114.154" x2="119.555" y2="135.77" gradientUnits="userSpaceOnUse">
<stop stop-color="#FCFC03"/>
<stop offset="1" stop-color="#838300"/>
</linearGradient>
<linearGradient id="paint3_linear_5191_7998" x1="88.8768" y1="101.154" x2="88.555" y2="122.77" gradientUnits="userSpaceOnUse">
<stop stop-color="#FCFC03"/>
<stop offset="1" stop-color="#838300"/>
</linearGradient>
<linearGradient id="paint4_linear_5191_7998" x1="159" y1="123.5" x2="136.5" y2="132" gradientUnits="userSpaceOnUse">
<stop stop-color="#5F9FFF"/>
<stop offset="0.677619" stop-color="#E3037A"/>
</linearGradient>
<linearGradient id="paint5_linear_5191_7998" x1="175.313" y1="121.301" x2="175.313" y2="159.035" gradientUnits="userSpaceOnUse">
<stop stop-color="#5F9FFF"/>
<stop offset="0.677619" stop-color="#396099"/>
</linearGradient>
<linearGradient id="paint6_linear_5191_7998" x1="55.5001" y1="78" x2="54.9792" y2="112.986" gradientUnits="userSpaceOnUse">
<stop stop-color="#FCFC03"/>
<stop offset="1" stop-color="#838300"/>
</linearGradient>
<clipPath id="clip0_5191_7998">
<rect width="259" height="180" fill="white"/>
</clipPath>
</defs>
</svg>
